<?xml version="1.0" encoding="UTF-8"?>
<svg width="24px" height="24px" viewBox="0 0 24 24" version="1.1" xmlns="http://www.w3.org/2000/svg" xmlns:xlink="http://www.w3.org/1999/xlink">
    <title>icon/heart-fill</title>
    <g id="prototype" stroke="none" stroke-width="1" fill="none" fill-rule="evenodd">
        <g id="2.10.6-Rating-Modals" transform="translate(-410.000000, -247.000000)" fill-rule="nonzero">
            <g id="tooltips" transform="translate(267.000000, 182.000000)">
                <g id="heart" transform="translate(13.000000, 65.000000)">
                    <g id="icon/heart-fill" transform="translate(130.000000, 0.000000)">
                        <rect id="Rectangle" fill="#000000" opacity="0" x="0" y="0" width="24" height="24"></rect>
                        <path d="M22.4677366,6.09858836 C22.1264938,5.29489292 21.6375489,4.57647705 21.018728,3.95884614 C20.3999072,3.34379946 19.6817693,2.86313273 18.8795941,2.52459864 C18.051953,2.17572762 17.1759268,2 16.2718881,2 C15.0164202,2 13.7915114,2.34887101 12.7270376,3.0078496 C12.4723788,3.16548761 12.2304529,3.338631 12.00126,3.52727978 C11.7720671,3.338631 11.5301413,3.16548761 11.2754825,3.0078496 C10.2110087,2.34887101 8.98609987,2 7.730632,2 C6.82659327,2 5.95056701,2.17572762 5.12292592,2.52459864 C4.3232973,2.8605485 3.6026129,3.34379946 2.98379203,3.95884614 C2.36242456,4.57647705 1.87602626,5.29489292 1.53478347,6.09858836 C1.18080775,6.93329457 1,7.81968537 1,8.73191847 C1,9.59246697 1.17316798,10.4891947 1.51695736,11.4014278 C1.8047218,12.1637756 2.21726905,12.9545499 2.74441276,13.7530768 C3.57969361,15.0167652 4.72820479,16.3347224 6.15429405,17.6707691 C8.51752769,19.885454 10.857842,21.415318 10.957159,21.4773395 L11.5607003,21.8701425 C11.828092,22.0432858 12.1718814,22.0432858 12.4392732,21.8701425 L13.0428145,21.4773395 C13.1421314,21.4127338 15.4798992,19.885454 17.8456794,17.6707691 C19.2717687,16.3347224 20.4202799,15.0167652 21.2555607,13.7530768 C21.7827044,12.9545499 22.1977983,12.1637756 22.4830161,11.4014278 C22.8268055,10.4891947 23,9.59246697 23,8.73191847 C23.0025201,7.81968537 22.8217123,6.93329457 22.4677366,6.09858836 Z" id="Path" fill="#95969D"></path>
                    </g>
                </g>
            </g>
        </g>
    </g>
</svg>