<?xml version="1.0" encoding="UTF-8"?>
<svg width="24px" height="24px" viewBox="0 0 24 24" version="1.1" xmlns="http://www.w3.org/2000/svg" xmlns:xlink="http://www.w3.org/1999/xlink">
    <title>icon/star</title>
    <g id="prototype" stroke="none" stroke-width="1" fill="none" fill-rule="evenodd">
        <g id="2.10.6-Rating-Modals" transform="translate(-114.000000, -112.000000)" fill="#000000" fill-rule="nonzero">
            <g id="button-layout" transform="translate(30.000000, 72.000000)">
                <g id="1" transform="translate(0.000000, 30.000000)">
                    <g id="icon/star" transform="translate(84.000000, 10.000000)">
                        <rect id="Rectangle" opacity="0" x="0" y="0" width="24" height="24"></rect>
                        <path d="M11.2093305,1.6598036 C11.6435817,0.780065467 12.3536229,0.780065467 12.7873847,1.6598036 L14.8761313,5.89781731 C15.4188535,6.85640255 16.350388,7.53265402 17.429911,7.75203235 L22.1007969,8.43195113 C23.0714573,8.57177333 23.2907974,9.24653343 22.5892958,9.93131751 L19.2090025,13.2294981 C18.4645579,14.0431025 18.1089255,15.1388695 18.2335216,16.2336341 L19.0312108,20.8864691 C19.1972818,21.8514599 18.6228478,22.2711955 17.7548103,21.8162782 L13.5768033,19.6174585 C12.5734523,19.1625902 11.4230671,19.1625902 10.4202055,19.6174585 L6.24244324,21.8162782 C5.37465044,22.271171 4.79994723,21.8509465 4.96530867,20.8864691 L5.7656894,16.2336341 C5.89075042,15.1388695 5.53511809,14.0431025 4.79091817,13.2294981 L1.41033119,9.93129306 C0.710102048,9.24650898 0.927704792,8.57174888 1.8980716,8.43192668 L6.56944684,7.7520079 C7.64923899,7.53262957 8.58079798,6.8563781 9.12303084,5.89779286 L11.2093305,1.6598036 Z" id="Path"></path>
                    </g>
                </g>
            </g>
        </g>
    </g>
</svg>