<?xml version="1.0" encoding="UTF-8"?>
<svg width="24px" height="24px" viewBox="0 0 24 24" version="1.1" xmlns="http://www.w3.org/2000/svg" xmlns:xlink="http://www.w3.org/1999/xlink">
    <title>thumbs-down</title>
    <g id="prototype" stroke="none" stroke-width="1" fill="none" fill-rule="evenodd">
        <g id="2.10.6-Rating-Modals" transform="translate(-595.000000, -245.000000)" fill-rule="nonzero">
            <g id="tooltips" transform="translate(497.000000, 182.000000)">
                <g id="Group-7" transform="translate(58.000000, 63.000000)">
                    <g id="thumbs-down" transform="translate(40.000000, 0.000000)">
                        <rect id="Rectangle" fill="#000000" opacity="0" x="0" y="0" width="24" height="24"></rect>
                        <path d="M4.52003127,5.37463541 C4.52003127,5.61144902 4.43319296,5.81676524 4.2595398,5.99058408 C4.08588665,6.16440293 3.8793802,6.25072907 3.64002045,6.24957418 C3.39244738,6.24957418 3.18418093,6.16323637 3.01522111,5.99058408 C2.84626129,5.8179318 2.76119471,5.61261558 2.76002137,5.37463541 C2.76002137,5.12848925 2.84508795,4.92142317 3.01522111,4.75343717 C3.18535426,4.58545117 3.39362071,4.50087488 3.64002045,4.49970831 C3.87820688,4.49970831 4.08471333,4.5842846 4.2595398,4.75343717 C4.43436628,4.92258974 4.52119286,5.12965582 4.52003127,5.37463541 Z M6.72002894,12.3740521 L6.72002894,3.62478123 C6.72002894,3.38796762 6.63319062,3.1826514 6.45953747,3.00883256 C6.28588432,2.83501371 6.07937787,2.74868757 5.84001812,2.74984246 L1.88002232,2.74984246 C1.64183589,2.74984246 1.43532944,2.83618027 1.26050297,3.00883256 C1.08567649,3.18148484 0.998849912,3.38680107 1.0000115,3.62478123 L1.0000115,12.3740521 C1.0000115,12.6108657 1.08684981,12.816182 1.26050297,12.9900008 C1.43415612,13.1638196 1.64066257,13.2501458 1.88002232,13.2489909 L5.84001812,13.2489909 C6.07820454,13.2489909 6.28471099,13.1626531 6.45953747,12.9900008 C6.63436395,12.8173485 6.72119052,12.6120323 6.72002894,12.3740521 Z M22.2432008,10.3372219 C22.7477336,10.8936755 23,11.5726189 23,12.3740521 C22.9906133,13.0844929 22.7272003,13.6998583 22.2097608,14.2201483 C21.6923214,14.7404383 21.0757354,15 20.3600028,14.9988334 L16.5513668,14.9988334 C16.5877401,15.1259895 16.6241134,15.2350637 16.6604867,15.3260561 C16.69686,15.4170485 16.7473133,15.5173735 16.8118465,15.627031 C16.8763798,15.7366886 16.9221398,15.8189317 16.9491264,15.8737605 C17.1145662,16.2108991 17.2383527,16.4704608 17.320486,16.6524456 C17.4026193,16.8344304 17.4894458,17.1009916 17.5809657,17.4521289 C17.6724856,17.8032663 17.7182456,18.1520706 17.7182456,18.4985418 C17.7182456,18.7166902 17.7158989,18.8945921 17.7112056,19.0322473 C17.7065122,19.1699025 17.6836323,19.3752187 17.6425656,19.648196 C17.601499,19.9211732 17.5463524,20.1492375 17.4771258,20.332389 C17.4078992,20.5155404 17.2981927,20.7208566 17.1480062,20.9483376 C16.9978197,21.1758187 16.8147799,21.3601366 16.5988867,21.5012915 C16.3829936,21.6424465 16.1078472,21.7608533 15.7734476,21.856512 C15.439048,21.9521707 15.0606484,22 14.6382488,22 C14.4000624,22 14.1935559,21.9136739 14.0187295,21.7410216 C13.8356896,21.5590367 13.6796365,21.3309724 13.55057,21.0568286 C13.4215034,20.7826848 13.3323302,20.5458712 13.2830502,20.3463878 C13.2337703,20.1469044 13.176277,19.8686776 13.1105704,19.5117073 C13.0284372,19.1290726 12.9668373,18.8531789 12.9257706,18.6840263 C12.884704,18.5148738 12.8043308,18.2938089 12.6846509,18.0208316 C12.564971,17.7478543 12.4229978,17.5291226 12.2587313,17.3646363 C11.9560117,17.0636614 11.4931322,16.5171236 10.8700928,15.7250229 C10.4207066,15.1417382 9.95782713,14.5905341 9.4814543,14.0714107 C9.00508147,13.5522873 8.65660184,13.2833931 8.43601541,13.2647279 C8.20721566,13.2460628 8.01009586,13.1527373 7.84465602,12.9847513 C7.67921619,12.8167653 7.59649629,12.6184485 7.59649629,12.3898009 L7.59649629,3.62653114 C7.59649629,3.38971754 7.68332287,3.18673445 7.85697603,3.01758189 C8.03062918,2.84842934 8.23713563,2.75977006 8.47649537,2.75160406 C8.79681504,2.74227151 9.52076094,2.54162156 10.6483331,2.14965422 C11.354679,1.91284062 11.9067317,1.73260563 12.3044913,1.60894927 C12.7022509,1.48529291 13.258997,1.35288728 13.9747296,1.21173237 C14.6904621,1.07057746 15.3504614,1 15.9547275,1 L17.7288056,1 C18.9478976,1.01866511 19.8507767,1.37388551 20.4374427,2.06566121 C20.9689622,2.69444214 21.1936553,3.51920674 21.111522,4.53995501 C21.4693883,4.87709359 21.7169614,5.30522458 21.8542412,5.82434799 C22.0102944,6.38080162 22.0102944,6.91392386 21.8542412,7.42371472 C22.2754674,7.98016835 22.4725872,8.604283 22.4456006,9.29605868 C22.4456006,9.58770104 22.3769607,9.93417217 22.2396808,10.3354721 L22.2432008,10.3372219 Z" id="Shape" fill="#95969D"></path>
                    </g>
                </g>
            </g>
        </g>
    </g>
</svg>