<?xml version="1.0" encoding="UTF-8"?>
<svg width="24px" height="24px" viewBox="0 0 24 24" version="1.1" xmlns="http://www.w3.org/2000/svg" xmlns:xlink="http://www.w3.org/1999/xlink">
    <title>icon/thumbs-up</title>
    <g id="prototype" stroke="none" stroke-width="1" fill="none" fill-rule="evenodd">
        <g id="2.10.6-Rating-Modals" transform="translate(-575.000000, -112.000000)" fill="#000000" fill-rule="nonzero">
            <g id="button-layout" transform="translate(30.000000, 72.000000)">
                <g id="1" transform="translate(461.000000, 30.000000)">
                    <g id="icon/thumbs-up" transform="translate(84.000000, 10.000000)">
                        <rect id="Rectangle" opacity="0" x="0" y="0" width="24" height="24"></rect>
                        <path d="M4.51972883,17.6252871 C4.51972883,17.3884575 4.43271529,17.1832732 4.25869271,17.0097342 C4.08467014,16.8361953 3.87830708,16.749681 3.63960355,16.7501892 C3.39217322,16.7501892 3.18350014,16.8367057 3.01358429,17.0097342 C2.84366844,17.1827628 2.75896719,17.3879471 2.75947821,17.6252871 C2.75947821,17.8713041 2.84418178,18.0787852 3.01358429,18.2477305 C3.1829868,18.4166758 3.39165988,18.5008932 3.63960355,18.5003851 C3.87779374,18.5003851 4.0841568,18.4161654 4.25869271,18.2477305 C4.43322863,18.0792956 4.52023991,17.8718145 4.51972883,17.6252871 Z M6.72042139,10.6252871 L6.72042139,19.3754785 C6.72042139,19.6123081 6.63340785,19.8174924 6.45938527,19.9910314 C6.2853627,20.1645703 6.07899964,20.2510846 5.84029611,20.2505765 L1.88012752,20.2505765 C1.64193733,20.2505765 1.43557427,20.1640599 1.26103836,19.9910314 C1.08650244,19.8180028 0.999491156,19.6128185 1.00000224,19.3754785 L1.00000224,10.6252871 C1.00000224,10.3884575 1.08701578,10.1832732 1.26103836,10.0097342 C1.43506093,9.83619527 1.64142399,9.74968099 1.88012752,9.75018916 L5.84029611,9.75018916 C6.0784863,9.75018916 6.28484936,9.83670568 6.45938527,10.0097342 C6.63392119,10.1827628 6.72093247,10.3879471 6.72042139,10.6252871 Z M23,10.6252871 C23,11.4092749 22.7479496,12.0883736 22.2438488,12.6625834 C22.3814242,13.0637646 22.4502119,13.4100769 22.4502119,13.7015203 C22.4779323,14.3941449 22.2808094,15.0183747 21.8588431,15.5742098 C22.0148988,16.0846185 22.0148988,16.6177403 21.8588431,17.1735754 C21.7212677,17.6931715 21.4738374,18.1216596 21.1165521,18.4590397 C21.1992,19.4798571 20.9746134,20.3046775 20.4427922,20.933501 C19.8560435,21.6261256 18.9530768,21.9816253 17.7338921,22 L15.9597858,22 C15.3545569,22 14.6946571,21.9293084 13.9800865,21.7879252 C13.265516,21.646542 12.7085411,21.5143461 12.3091618,21.3913376 C11.9097826,21.2683291 11.3574277,21.0884101 10.6520973,20.8515804 C9.52480063,20.4595866 8.80073325,20.258996 8.47989517,20.2498086 C8.24170498,20.2406212 8.03534192,20.1518101 7.86080601,19.9833753 C7.68627009,19.8149404 7.5992588,19.6120529 7.59976989,19.3747129 L7.59976989,10.6115061 C7.59976989,10.3838638 7.68216336,10.18557 7.8469458,10.0166247 C8.01172824,9.84767946 8.20885116,9.75427467 8.43831455,9.73641037 C8.65853781,9.71803566 9.00683963,9.44905028 9.48322001,8.92945423 C9.95960039,8.40985818 10.4226339,7.85836159 10.8723206,7.27496445 C11.4955165,6.48178935 11.95855,5.93488643 12.2614211,5.63425571 C12.4262036,5.47041452 12.568399,5.2517044 12.6880074,4.97812534 C12.8076159,4.70454628 12.8879537,4.48353932 12.929021,4.31510445 C12.9700883,4.14666958 13.0319458,3.87104889 13.1145937,3.48824237 C13.1787614,3.13299792 13.2359989,2.85508039 13.2863063,2.65448977 C13.3366137,2.45389916 13.425935,2.21681432 13.5542702,1.94323526 C13.6826055,1.6696562 13.8384044,1.44175872 14.0216672,1.25954282 C14.1956897,1.08651427 14.4020528,1 14.6407563,1 C15.0622092,1 15.4402848,1.04797842 15.7749831,1.14393525 C16.1096814,1.23989209 16.3845755,1.3583069 16.5996653,1.4991797 C16.8147552,1.6400525 16.9980179,1.82456524 17.1494534,2.05271793 C17.300889,2.28087061 17.4110006,2.48605491 17.4797883,2.66827081 C17.548576,2.85048671 17.6035035,3.07838419 17.6445708,3.35196325 C17.685638,3.62554231 17.7084817,3.8307266 17.7131018,3.96751613 C17.7177218,4.10430566 17.7200319,4.28192789 17.7200319,4.50038281 C17.7200319,4.84695031 17.6763979,5.19326261 17.5891299,5.5393197 C17.501862,5.88537679 17.4148507,6.15870065 17.3280961,6.35929126 C17.2413415,6.55988188 17.1153163,6.81508622 16.9500205,7.1249043 C16.9223001,7.17951803 16.8763561,7.26143862 16.8121884,7.37066608 C16.7480208,7.47989354 16.6977134,7.58018885 16.6612662,7.67155201 C16.624819,7.76291516 16.5881151,7.87239783 16.5511546,8 L20.3596309,8 C21.0747148,8 21.6935473,8.25979802 22.2161284,8.77939407 C22.7387095,9.29899012 23,9.9142878 23,10.6252871 L23,10.6252871 Z" id="Shape"></path>
                    </g>
                </g>
            </g>
        </g>
    </g>
</svg>