<svg width="10" height="10" viewBox="0 0 10 10" fill="none" xmlns="http://www.w3.org/2000/svg">
<path d="M0.552572 9.47658C0.771905 9.69659 1.12779 9.69687 1.34746 9.47719L9.46151 1.36315C9.68118 1.14348 9.68145 0.787047 9.46212 0.56704C9.24278 0.347033 8.8869 0.346759 8.66723 0.566429L0.553184 8.68048C0.333514 8.90015 0.33324 9.25658 0.552572 9.47658Z" fill="white"/>
<path d="M9.46208 9.47658C9.24275 9.69659 8.88687 9.69687 8.6672 9.47719L0.553146 1.36315C0.333476 1.14348 0.333202 0.787047 0.552534 0.56704C0.771867 0.347033 1.12775 0.346759 1.34742 0.566429L9.46147 8.68048C9.68114 8.90015 9.68141 9.25658 9.46208 9.47658Z" fill="white"/>
</svg>
